<svg xmlns="http://www.w3.org/2000/svg" xmlns:xlink="http://www.w3.org/1999/xlink" preserveAspectRatio="xMidYMid" width="5" height="21" viewBox="0 0 5 21">
  <defs>
    <style>
      .cls-1 {
        fill: #dfdfdf;
        fill-rule: evenodd;
      }
    </style>
  </defs>
  <path d="M2.500,13.125 C1.125,13.125 -0.000,11.944 -0.000,10.500 C-0.000,9.056 1.125,7.875 2.500,7.875 C3.875,7.875 5.000,9.056 5.000,10.500 C5.000,11.944 3.875,13.125 2.500,13.125 ZM2.500,5.250 C1.125,5.250 -0.000,4.069 -0.000,2.625 C-0.000,1.181 1.125,-0.000 2.500,-0.000 C3.875,-0.000 5.000,1.181 5.000,2.625 C5.000,4.069 3.875,5.250 2.500,5.250 ZM2.500,15.750 C3.875,15.750 5.000,16.931 5.000,18.375 C5.000,19.819 3.875,21.000 2.500,21.000 C1.125,21.000 -0.000,19.819 -0.000,18.375 C-0.000,16.931 1.125,15.750 2.500,15.750 Z" class="cls-1"/>
</svg>
