<svg xmlns="http://www.w3.org/2000/svg" xmlns:xlink="http://www.w3.org/1999/xlink" preserveAspectRatio="xMidYMid" width="14" height="19" viewBox="0 0 14 19">
  <defs>
    <style>
      .cls-1 {
        fill: #d9d9d9;
        fill-rule: evenodd;
      }
    </style>
  </defs>
  <path d="M12.250,19.000 L1.750,19.000 C0.787,19.000 -0.000,18.186 -0.000,17.190 L-0.000,8.143 C-0.000,7.148 0.787,6.333 1.750,6.333 L2.625,6.333 L2.625,4.524 C2.625,1.990 4.550,-0.000 7.000,-0.000 C9.450,-0.000 11.375,1.990 11.375,4.524 L11.375,6.333 L12.250,6.333 C13.212,6.333 14.000,7.148 14.000,8.143 L14.000,17.190 C14.000,18.186 13.212,19.000 12.250,19.000 ZM9.712,4.524 C9.712,2.986 8.487,1.719 7.000,1.719 C5.512,1.719 4.287,2.986 4.287,4.524 L4.375,4.524 L4.375,6.333 L9.712,6.333 L9.712,4.524 ZM12.250,8.143 L1.750,8.143 L1.750,17.190 L12.250,17.190 L12.250,8.143 ZM7.000,10.857 C7.962,10.857 8.750,11.671 8.750,12.667 C8.750,13.662 7.962,14.476 7.000,14.476 C6.037,14.476 5.250,13.662 5.250,12.667 C5.250,11.671 6.037,10.857 7.000,10.857 Z" class="cls-1"/>
</svg>
